<?xml version="1.0" encoding="UTF-8"?>
<svg viewBox="0 0 46.054569 64.656891" xmlns="http://www.w3.org/2000/svg" xmlns:xlink="http://www.w3.org/1999/xlink">
 <defs>
  <linearGradient id="a">
   <stop stop-color="#a18930" offset="0"/>
   <stop stop-color="#e3c565" offset=".66667"/>
   <stop stop-color="#fffbcc" offset="1"/>
  </linearGradient>
  <linearGradient id="c" x1="32.232" x2="41.601" y1="52.825" y2="65.947" gradientUnits="userSpaceOnUse" xlink:href="#a" spreadMethod="reflect"/>
  <linearGradient id="b" x1="44.906" x2="51.25" y1="38.795" y2="47.564" gradientUnits="userSpaceOnUse" xlink:href="#a" spreadMethod="reflect"/>
 </defs>
 <g transform="translate(-120.27 -345.48)">
  <path d="m143.52 346.48c5.3995 6e-5 9.9684 1.617 13.707 4.8509s5.6073 7.5208 5.6073 12.861c-4e-5 2.2544-0.51926 4.3457-1.5577 6.2741s-2.5074 3.8125-4.4068 5.6521c2.7305 1.6007 4.8223 3.573 6.2755 5.9169s2.1796 5.0587 2.1796 8.1441c-5e-5 5.5172-2.0615 10.056-6.1845 13.617s-9.3886 5.3411-15.797 5.3411c-4.391 0-8.4705-0.7863-12.239-2.3589s-7.0464-3.9614-9.8349-7.1663l9.8783-9.6122c1.3055 1.722 2.8781 3.176 4.7178 4.362s3.8278 1.779 5.9645 1.779c2.1946 1e-5 4.0931-0.50428 5.6956-1.5128 1.9574-1.2458 2.936-3.0257 2.9361-5.3398-4e-5 -2.1946-0.6528-3.826-1.9583-4.8943-1.483-1.2458-4.123-1.8686-7.92-1.8687h-5.0736v-10.769h4.8944c2.1964 3e-5 3.9473-0.44449 5.2529-1.3336 1.5427-1.0683 2.3141-2.6409 2.3141-4.7178-2e-5 -1.7799-0.66772-3.2484-2.0031-4.4055s-2.8931-1.7355-4.673-1.7356c-1.8995 4e-5 -3.65 0.48939-5.2515 1.468s-2.9365 2.2992-4.0048 3.9614l-10.769-7.2112c2.8482-3.855 6.0672-6.7023 9.657-8.542s7.7874-2.7595 12.593-2.7595z" fill="url(#c)" stroke="url(#b)" stroke-width="2"/>
 </g>
</svg>
