<?xml version="1.0" encoding="UTF-8"?>
<svg viewBox="0 0 46.144199 65.813927" xmlns="http://www.w3.org/2000/svg" xmlns:xlink="http://www.w3.org/1999/xlink">
 <defs>
  <linearGradient id="a">
   <stop stop-color="#a18930" offset="0"/>
   <stop stop-color="#e3c565" offset=".66667"/>
   <stop stop-color="#fffbcc" offset="1"/>
  </linearGradient>
  <linearGradient id="c" x1="32.232" x2="41.601" y1="52.825" y2="65.947" gradientUnits="userSpaceOnUse" xlink:href="#a" spreadMethod="reflect"/>
  <linearGradient id="b" x1="44.906" x2="51.25" y1="38.795" y2="47.564" gradientUnits="userSpaceOnUse" xlink:href="#a" spreadMethod="reflect"/>
 </defs>
 <g transform="translate(-266.74 -344.32)">
  <path d="m291.23 345.32 14.596 5.4294c-3.0257 2.3739-5.8885 4.9845-8.5882 7.8318s-5.2964 5.9623-7.7897 9.3446c0.65364-0.17741 1.2919-0.32543 1.9148-0.44407s1.2602-0.17786 1.9121-0.17791c5.816 5e-5 10.444 2.1656 13.885 6.4968 3.1452 3.9745 4.7178 8.81 4.7178 14.506-5e-5 5.8142-2.0769 10.739-6.2306 14.774s-9.4637 6.0528-15.93 6.0528c-6.4081 0-11.674-2.1212-15.798-6.3637s-6.1858-9.5678-6.1858-15.976c0-6.5276 2.4915-13.826 7.4746-21.894 4.094-6.6453 9.4347-13.172 16.022-19.58zm-1.2467 33.997c-2.2544 3e-5 -4.1529 0.80126-5.6956 2.4037s-2.3141 3.6495-2.3141 6.141c-2e-5 2.1366 0.74147 4.0356 2.2245 5.6969s3.4114 2.492 5.7852 2.492c2.1946 1e-5 4.0188-0.84559 5.4729-2.5368s2.181-3.664 2.181-5.9183c-3e-5 -2.1964-0.72703-4.1252-2.181-5.7866s-3.2783-2.492-5.4729-2.492z" fill="url(#c)" stroke="url(#b)" stroke-width="2"/>
 </g>
</svg>
