<?xml version="1.0" encoding="UTF-8"?>
<svg viewBox="0 0 46.855774 64.656921" xmlns="http://www.w3.org/2000/svg" xmlns:xlink="http://www.w3.org/1999/xlink">
 <defs>
  <linearGradient id="a">
   <stop stop-color="#a18930" offset="0"/>
   <stop stop-color="#e3c565" offset=".66667"/>
   <stop stop-color="#fffbcc" offset="1"/>
  </linearGradient>
  <linearGradient id="c" x1="32.232" x2="41.601" y1="52.825" y2="65.947" gradientUnits="userSpaceOnUse" xlink:href="#a" spreadMethod="reflect"/>
  <linearGradient id="b" x1="44.906" x2="51.25" y1="38.795" y2="47.564" gradientUnits="userSpaceOnUse" xlink:href="#a" spreadMethod="reflect"/>
 </defs>
 <g transform="translate(-363.72 -345.48)">
  <path d="m386.79 346.48c5.9337 6e-5 10.77 1.3644 14.509 4.0931 4.2117 3.0855 6.3175 7.5064 6.3176 13.263-4e-5 2.669-0.57856 5.1013-1.7356 7.2967s-2.8039 4.1832-4.9405 5.9631c2.8482 1.8397 4.9993 3.9166 6.4534 6.2306s2.181 5.0438 2.181 8.1889c-4e-5 5.874-2.4028 10.383-7.2084 13.526-4.1538 2.7306-9.375 4.0958-15.664 4.0958-5.874 0-10.829-1.3354-14.865-4.0062-4.7459-3.1452-7.1188-7.595-7.1188-13.349 0-3.3226 0.71206-6.1261 2.1362-8.4103s3.6192-4.376 6.5851-6.2755c-2.0769-1.8976-3.6785-3.8559-4.8047-5.8748-1.3653-2.4317-2.0479-4.8047-2.0479-7.1188 0-5.3397 2.1068-9.671 6.3203-12.994 3.9147-3.0854 8.542-4.6281 13.882-4.6282zm0.08963 24.029c1.7799-0.82926 3.1153-1.6894 4.0062-2.5803 1.2457-1.2457 1.8686-2.6997 1.8687-4.362-3e-5 -1.6006-0.56362-2.8609-1.6908-3.7808s-2.4332-1.3797-3.9179-1.3798c-1.6007 5e-5 -2.9646 0.53376-4.0918 1.6011s-1.6908 2.3137-1.6908 3.7387c-2e-5 1.6025 0.56311 2.9968 1.6894 4.1827 0.83109 0.89091 2.1067 1.751 3.8269 2.5803zm0 12.016c-2.7885 1.3056-4.702 2.6405-5.7404 4.0048s-1.5577 2.8179-1.5577 4.3606c-1e-5 1.8994 0.74193 3.4128 2.2258 4.5399s3.2045 1.6908 5.1619 1.6908c2.0769 1e-5 3.8269-0.50427 5.2502-1.5128 1.6622-1.1878 2.4933-2.7604 2.4934-4.7178-3e-5 -2.0769-0.80127-3.8568-2.4037-5.3398-1.2458-1.186-3.0556-2.1946-5.4294-3.0257z" fill="url(#c)" stroke="url(#b)" stroke-width="2"/>
 </g>
</svg>
