<?xml version="1.0" encoding="UTF-8"?>
<svg viewBox="0 0 46.144192 65.903564" xmlns="http://www.w3.org/2000/svg" xmlns:xlink="http://www.w3.org/1999/xlink">
 <defs>
  <linearGradient id="a">
   <stop stop-color="#a18930" offset="0"/>
   <stop stop-color="#e3c565" offset=".66667"/>
   <stop stop-color="#fffbcc" offset="1"/>
  </linearGradient>
  <linearGradient id="c" x1="32.232" x2="41.601" y1="52.825" y2="65.947" gradientUnits="userSpaceOnUse" xlink:href="#a" spreadMethod="reflect"/>
  <linearGradient id="b" x1="44.906" x2="51.25" y1="38.795" y2="47.564" gradientUnits="userSpaceOnUse" xlink:href="#a" spreadMethod="reflect"/>
 </defs>
 <g transform="translate(-412.75 -345.3)">
  <path d="m436 346.3c6.3483 6e-5 11.584 2.1213 15.708 6.3637s6.1858 9.5678 6.1858 15.976c-4e-5 4.8654-1.187 9.8793-3.5608 15.042-2.0769 4.4507-5.0438 9.1676-8.9005 14.151-2.7885 3.5599-6.467 7.6838-11.035 12.372l-14.596-5.519c3.3226-2.5513 6.3189-5.2062 8.9888-7.9649s5.1618-5.7992 7.476-9.1219c-1.3635 0.35492-2.669 0.53237-3.9166 0.53235-5.9319 2e-5 -10.589-2.1357-13.971-6.4072-3.0854-3.8568-4.6282-8.7222-4.6282-14.596 0-5.8141 2.0764-10.739 6.2293-14.774s9.4931-6.0527 16.021-6.0528zm-0.26617 13.083c-2.2562 5e-5 -4.1108 0.83072-5.5639 2.492s-2.1797 3.6491-2.1796 5.9631c-2e-5 2.2544 0.72653 4.2122 2.1796 5.8735s3.3077 2.492 5.5639 2.492c2.1946 3e-5 4.0632-0.83063 5.606-2.492s2.3141-3.7377 2.3141-6.2293c-3e-5 -2.1348-0.72703-4.0184-2.181-5.6508s-3.367-2.4485-5.739-2.4485z" fill="url(#c)" stroke="url(#b)" stroke-width="2"/>
 </g>
</svg>
