<?xml version="1.0" encoding="UTF-8"?>
<svg width="86.214mm" height="70.924mm" version="1.1" viewBox="0 0 305.48404 251.30401" xmlns="http://www.w3.org/2000/svg">
 <g transform="translate(-216.54 -261.35)">
  <path d="m216.54 381.99c0 5.9021 4.7846 10.687 10.687 10.687h77.716c5.902 0 10.687-4.7846 10.687-10.687v-104.24c0-5.9022-4.7847-10.686-10.687-10.686h-77.716c-5.902 0-10.687 4.7843-10.687 10.686zm190.38 130.58c16.101 1.3171 30.32-12.214 32.142-27.857 3.285-16.814-0.0351-23.734-8.4294-38.193-4.4703-9.9366-3.3272-8.3697-0.90645-19.688 8.4261-2.3305 18.925 0.2872 28.132-0.5885 15.055-0.3506 30.477 0.6533 45.203-2.9316 9.8927-4.6425 16.376-15.283 18.961-25.61-0.63-9.4758-15.212-17.25-5.4036-26.885 8.5283-8.3795 3.8952-18.594-4.0482-25.274-7.3205-9.8513 9.0701-20.288 1.5246-30.391-5.4774-7.6356-16.324-13.311-13.53-24.363 1.278-11.104-9.6047-18.279-17.494-23.947-13.892-6.9354-30.161-5.13-45.226-5.4882-25.22 0.7956-50.655 1.1142-75.333 6.9317-11.841 2.2428-23.738 4.2318-35.543 6.642l-0.3483 112.04c9.9633-1.4159 17.993 5.7155 23.263 13.394 11.665 15.716 23.707 24.398 32.064 41.858 7.8087 11.763 9.4576 15.158 14.017 29.379 6.4877 15.06 5.0355 21.698 6.7734 37.768 0 0 5.6694 3.2486 4.1797 3.1985z"/>
 </g>
</svg>
