<?xml version="1.0" encoding="UTF-8"?>
<svg viewBox="-26 -27 47 47" xmlns="http://www.w3.org/2000/svg">
 <path d="m19 0a19 19 0 1 0 -38 0 19 19 0 1 0 38 0" fill="#efff00" stroke="#000" stroke-width="2"/>
 <path d="m8-5a2 2 0 1 0 -4 0 2 2 0 1 0 4 0"/>
 <path d="m-4-5a2 2 0 1 0 -4 0 2 2 0 1 0 4 0"/>
 <path d="m11.31 0a11.31 11.31 0 0 1 -22.62 0" fill="none" stroke="#000" stroke-width="3"/>
 <g transform="matrix(.99863,-.052336,.052336,.99863,-14,5)" stroke="#000" stroke-linejoin="round" stroke-width="2">
  <path d="m4.4-12a3,3 0 0,1 0,6h.6a2.9,2.9 0 0,1 0,5.8l-.9.2a2.7,2.7 0 0,1 0,5.4l-1.7.1a2.3,2.3 0 0,1 0,4.6l-8.4.9a3.4,3.4 0 0,1 -2.5-5 4,4 0 0,1 -.5-6 4,4 0 0,1 .4-6 4,4 0 0,1 2-6zm-9.4,0 3-4 .5-3a3.5,7 0 1,1 5.5,1l.5,6z" fill="#efff00"/>
  <path d="m4.4-6h-7m6.7,6h-6.3m4.6,5.5-4.7.2" fill="none" stroke-linecap="round"/>
 </g>
</svg>
